<?xml version="1.0" encoding="utf-8"?>
<!-- Generator: Adobe Illustrator 27.9.0, SVG Export Plug-In . SVG Version: 6.00 Build 0)  -->
<svg version="1.1" id="Layer_1" xmlns="http://www.w3.org/2000/svg" xmlns:xlink="http://www.w3.org/1999/xlink" x="0px" y="0px"
	 viewBox="0 0 69.3 37.4" style="enable-background:new 0 0 69.3 37.4;" xml:space="preserve">
<style type="text/css">
	.st0{fill:#9D1010;}
</style>
<g>
	<path class="st0" d="M2.8,16.6c1,0,1.8-0.3,2.2-0.7s0.7-1,0.7-1.7c0-0.6-0.1-1.7-0.3-3.3c0-0.2-0.1-0.7-0.2-1.6
		C5.2,8.4,5.1,7.6,5.1,6.9c0-1.8,0.5-3.1,1.6-4.1c1.1-1,2.5-1.5,4.3-1.5h2.2v4.3h-1.2c-0.7,0-1.1,0.1-1.4,0.4
		c-0.3,0.3-0.4,0.7-0.4,1.3c0,0.5,0.1,1.5,0.2,3.1c0.2,2,0.3,3.3,0.3,3.9c0,1.1-0.3,2.1-0.8,2.8c-0.5,0.7-1.4,1.2-2.5,1.4v0.1
		c1.1,0.2,1.9,0.7,2.5,1.4c0.5,0.7,0.8,1.7,0.8,2.8c0,0.6-0.1,1.9-0.3,3.9c-0.2,1.6-0.2,2.6-0.2,3.1c0,0.6,0.1,1,0.4,1.3
		c0.3,0.3,0.8,0.4,1.4,0.4h1.2v4.3H11c-1.8,0-3.2-0.5-4.3-1.5c-1.1-1-1.6-2.4-1.6-4.1c0-0.7,0.1-1.5,0.2-2.4
		c0.1-0.9,0.2-1.4,0.2-1.6c0.2-1.7,0.3-2.8,0.3-3.3c0-0.7-0.2-1.3-0.7-1.7c-0.5-0.4-1.2-0.7-2.2-0.7V16.6z"/>
	<path class="st0" d="M22.7,12.1v4.4h7.1v4.1h-7.1v4.8h8v4.2H17.4V7.9h13.3v4.2H22.7z"/>
	<path class="st0" d="M46.8,29.6L39.4,20v9.6h-5.3V7.9h5.3v9.5l7.2-9.5h6.2l-8.4,10.7l8.7,11.1H46.8z"/>
	<path class="st0" d="M64.2,21.5c-0.5,0.4-0.7,1-0.7,1.7c0,0.6,0.1,1.7,0.3,3.3c0,0.2,0.1,0.7,0.2,1.6c0.1,0.9,0.2,1.7,0.2,2.4
		c0,1.8-0.5,3.2-1.6,4.1c-1.1,1-2.5,1.5-4.3,1.5H56v-4.3h1.2c0.7,0,1.1-0.1,1.4-0.4c0.3-0.3,0.4-0.7,0.4-1.3c0-0.5-0.1-1.5-0.2-3.1
		c-0.2-2-0.3-3.3-0.3-3.9c0-1.2,0.3-2.1,0.8-2.8c0.5-0.7,1.4-1.2,2.5-1.4v-0.1c-1.1-0.2-1.9-0.7-2.5-1.4c-0.5-0.7-0.8-1.7-0.8-2.8
		c0-0.6,0.1-1.9,0.3-3.9c0.2-1.6,0.2-2.6,0.2-3.1c0-0.6-0.1-1-0.4-1.3c-0.3-0.3-0.8-0.4-1.4-0.4H56V1.3h2.2c1.8,0,3.2,0.5,4.3,1.5
		c1.1,1,1.6,2.4,1.6,4.1c0,0.7-0.1,1.5-0.2,2.4c-0.1,0.9-0.2,1.4-0.2,1.6c-0.2,1.7-0.3,2.8-0.3,3.3c0,0.7,0.2,1.3,0.7,1.7
		c0.5,0.4,1.2,0.6,2.2,0.7v4.2C65.4,20.9,64.7,21.1,64.2,21.5z"/>
</g>
</svg>
